%FSLAX33Y33*%
%MOMM*%
%ADD10C,1.*%
%ADD11C,1.05*%
%ADD12C,1.05*%
%ADD13C,1.05*%
%ADD14C,1.05*%
%ADD15C,1.049999*%
%ADD16C,1.049998*%
%ADD17C,1.049997*%
%ADD18C,1.049996*%
%ADD19C,0.71*%
D10*
%LNhole_traces*%
G01*
X-3660Y-6800D03*
X4000Y-25125D03*
%LNhole component 9d72f970da236fb1*%
D11*
X6500Y-2750D03*
X3960Y-2750D03*
X1420Y-2750D03*
X-1120Y-2750D03*
X-3660Y-2750D03*
X-6200Y-2750D03*
%LNhole component 50730f7896073af7*%
X16550Y1000D03*
X19090Y1000D03*
X21630Y1000D03*
X24170Y1000D03*
X26710Y1000D03*
X29250Y1000D03*
%LNhole component 37f37e580a4ef7da*%
D12*
X29250Y-35750D03*
X26710Y-35750D03*
X24170Y-35750D03*
X21630Y-35750D03*
X19090Y-35750D03*
X16550Y-35750D03*
%LNhole component d4796d907e8f96a4*%
D11*
X-6200Y1000D03*
X-3660Y1000D03*
X-1120Y1000D03*
X1420Y1000D03*
X3960Y1000D03*
X6500Y1000D03*
%LNhole component 5fc81dfec5721ef8*%
D13*
X-7900Y-12715D03*
X-7900Y-15255D03*
X-7900Y-17795D03*
X-7900Y-20335D03*
%LNhole component 652db1df5cb2c357*%
D12*
X16550Y-32000D03*
X19090Y-32000D03*
X21630Y-32000D03*
X24170Y-32000D03*
X26710Y-32000D03*
X29250Y-32000D03*
%LNhole component 255e2a8b208ea0ae*%
D14*
X-15180Y-37050D03*
X-15180Y-34510D03*
X-15180Y-31970D03*
X-15180Y-29430D03*
X-15180Y-26890D03*
X-15180Y-24350D03*
X-15180Y-21810D03*
X-15180Y-19270D03*
X-15180Y-16730D03*
X-15180Y-14190D03*
X-15180Y-11650D03*
X-15180Y-9110D03*
X-15180Y-6570D03*
X-15180Y-4030D03*
X-15180Y-1490D03*
X-15180Y1050D03*
X-17720Y-37050D03*
X-17720Y-34510D03*
X-17720Y-31970D03*
X-17720Y-29430D03*
X-17720Y-26890D03*
X-17720Y-24350D03*
X-17720Y-21810D03*
X-17720Y-19270D03*
X-17720Y-16730D03*
X-17720Y-14190D03*
X-17720Y-11650D03*
X-17720Y-9110D03*
X-17720Y-6570D03*
X-17720Y-4030D03*
X-17720Y-1490D03*
X-17720Y1050D03*
D15*
X-32960Y-14190D03*
D16*
X-32960Y-16730D03*
D15*
X-32960Y-11650D03*
X-32960Y-4030D03*
X-32960Y-9110D03*
X-32960Y-1490D03*
X-32960Y-6570D03*
D16*
X-32960Y1050D03*
D17*
X-32960Y-24350D03*
D16*
X-32960Y-21810D03*
X-32960Y-19270D03*
D18*
X-35500Y-24350D03*
D17*
X-35500Y-21810D03*
X-35500Y-19270D03*
X-35500Y-16730D03*
D16*
X-35500Y-14190D03*
X-35500Y-11650D03*
X-35500Y-9110D03*
X-35500Y-6570D03*
X-35500Y-4030D03*
X-35500Y-1490D03*
D17*
X-35500Y1050D03*
D18*
X-35500Y-26890D03*
%LNhole component a1a45fffd741063f*%
D12*
X6500Y-35750D03*
X3960Y-35750D03*
X1420Y-35750D03*
X-1120Y-35750D03*
X-3660Y-35750D03*
X-6200Y-35750D03*
%LNhole component f91f4e25b9a7db2f*%
D19*
X28615Y-15005D03*
X28615Y-16275D03*
X28615Y-17545D03*
%LNhole component c50b25ac4a41304b*%
D11*
X29250Y-2750D03*
X26710Y-2750D03*
X24170Y-2750D03*
X21630Y-2750D03*
X19090Y-2750D03*
X16550Y-2750D03*
%LNhole component f983df3605afa4ed*%
D12*
X-6200Y-32000D03*
X-3660Y-32000D03*
X-1120Y-32000D03*
X1420Y-32000D03*
X3960Y-32000D03*
X6500Y-32000D03*
M02*