%FSLAX33Y33*%
%MOMM*%
%AMRect-W1600000-H1600000-RO1.500*
21,1,1.6,1.6,0.,0.,90*%
%AMRect-W1600000-H1600000-RO1.500*
21,1,1.6,1.6,0.,0.,90*%
%AMRect-W1600000-H1600000-RO0.500*
21,1,1.6,1.6,0.,0.,270*%
%AMRect-W1600000-H1600000-RO0.500*
21,1,1.6,1.6,0.,0.,270*%
%AMRect-W1600000-H1600000-RO1.000*
21,1,1.6,1.6,0.,0.,180*%
%ADD10C,1.5*%
%ADD11C,1.6*%
%ADD12Rect-W1600000-H1600000-RO1.500*%
%ADD13Rect-W1600000-H1600000-RO1.500*%
%ADD14C,1.6*%
%ADD15Rect-W1600000-H1600000-RO0.500*%
%ADD16R,1.6X1.6*%
%ADD17C,1.6*%
%ADD18Rect-W1600000-H1600000-RO0.500*%
%ADD19C,1.6*%
%ADD20Rect-W1600000-H1600000-RO1.000*%
%ADD21C,1.1*%
%ADD22R,1.1X1.1*%
D10*
%LNbottom solder mask_traces*%
G01*
X-3660Y-6800D03*
X4000Y-25125D03*
%LNbottom solder mask component 9d72f970da236fb1*%
D11*
X3960Y-2750D03*
X1420Y-2750D03*
X-1120Y-2750D03*
X-3660Y-2750D03*
X-6200Y-2750D03*
D12*
X6500Y-2750D03*
%LNbottom solder mask component 50730f7896073af7*%
D11*
X19090Y1000D03*
X21630Y1000D03*
X24170Y1000D03*
X26710Y1000D03*
X29250Y1000D03*
D13*
X16550Y1000D03*
%LNbottom solder mask component 37f37e580a4ef7da*%
D14*
X26710Y-35750D03*
X24170Y-35750D03*
X21630Y-35750D03*
X19090Y-35750D03*
X16550Y-35750D03*
D15*
X29250Y-35750D03*
%LNbottom solder mask component d4796d907e8f96a4*%
D11*
X-3660Y1000D03*
X-1120Y1000D03*
X1420Y1000D03*
X3960Y1000D03*
X6500Y1000D03*
D13*
X-6200Y1000D03*
%LNbottom solder mask component 5fc81dfec5721ef8*%
D16*
X-7900Y-12715D03*
D17*
X-7900Y-15255D03*
X-7900Y-17795D03*
X-7900Y-20335D03*
%LNbottom solder mask component 652db1df5cb2c357*%
D14*
X19090Y-32000D03*
X21630Y-32000D03*
X24170Y-32000D03*
X26710Y-32000D03*
X29250Y-32000D03*
D18*
X16550Y-32000D03*
%LNbottom solder mask component 255e2a8b208ea0ae*%
D19*
X-15180Y-34510D03*
X-15180Y-31970D03*
X-15180Y-29430D03*
X-15180Y-26890D03*
X-15180Y-24350D03*
X-15180Y-21810D03*
X-15180Y-19270D03*
X-15180Y-16730D03*
X-15180Y-14190D03*
X-15180Y-11650D03*
X-15180Y-9110D03*
X-15180Y-6570D03*
X-15180Y-4030D03*
X-15180Y-1490D03*
X-15180Y1050D03*
X-17720Y-37050D03*
X-17720Y-34510D03*
X-17720Y-31970D03*
X-17720Y-29430D03*
X-17720Y-26890D03*
X-17720Y-24350D03*
X-17720Y-21810D03*
X-17720Y-19270D03*
X-17720Y-16730D03*
X-17720Y-14190D03*
X-17720Y-11650D03*
X-17720Y-9110D03*
X-17720Y-6570D03*
X-17720Y-4030D03*
X-17720Y-1490D03*
X-17720Y1050D03*
X-32960Y-14190D03*
X-32960Y-16730D03*
X-32960Y-11650D03*
X-32960Y-4030D03*
X-32960Y-9110D03*
X-32960Y-1490D03*
X-32960Y-6570D03*
X-32960Y1050D03*
X-32960Y-24350D03*
X-32960Y-21810D03*
X-32960Y-19270D03*
X-35500Y-24350D03*
X-35500Y-21810D03*
X-35500Y-19270D03*
X-35500Y-16730D03*
X-35500Y-14190D03*
X-35500Y-11650D03*
X-35500Y-9110D03*
X-35500Y-6570D03*
X-35500Y-4030D03*
X-35500Y-1490D03*
X-35500Y1050D03*
X-35500Y-26890D03*
D20*
X-15180Y-37050D03*
%LNbottom solder mask component a1a45fffd741063f*%
D14*
X3960Y-35750D03*
X1420Y-35750D03*
X-1120Y-35750D03*
X-3660Y-35750D03*
X-6200Y-35750D03*
D15*
X6500Y-35750D03*
%LNbottom solder mask component f91f4e25b9a7db2f*%
D21*
X28615Y-15005D03*
X28615Y-16275D03*
D22*
X28615Y-17545D03*
%LNbottom solder mask component c50b25ac4a41304b*%
D11*
X26710Y-2750D03*
X24170Y-2750D03*
X21630Y-2750D03*
X19090Y-2750D03*
X16550Y-2750D03*
D12*
X29250Y-2750D03*
%LNbottom solder mask component f983df3605afa4ed*%
D14*
X-3660Y-32000D03*
X-1120Y-32000D03*
X1420Y-32000D03*
X3960Y-32000D03*
X6500Y-32000D03*
D18*
X-6200Y-32000D03*
M02*