%FSLAX33Y33*%
%MOMM*%
%ADD10C,0.15*%
%ADD11C,0.5*%
%ADD12C,0.5*%
D10*
%LNbottom silkscreen_traces*%
%LNbottom silkscreen component 9d72f970da236fb1*%
G01*
X-10010Y-4000D02*
X10310Y-4000D01*
X10310Y-1500*
X-10010Y-1500*
X-10010Y-4000*
D11*
X10440Y-4118D03*
G36*
X11511Y-4031D02*
X11487Y-3936D01*
X11432Y-3954D01*
X11384Y-3977D01*
X11343Y-4007D01*
X11309Y-4043D01*
X11282Y-4084D01*
X11263Y-4129D01*
X11252Y-4178D01*
X11248Y-4232D01*
X11251Y-4287D01*
X11260Y-4337D01*
X11274Y-4381D01*
X11295Y-4420D01*
X11321Y-4454D01*
X11353Y-4484D01*
X11389Y-4510D01*
X11431Y-4531D01*
X11477Y-4547D01*
X11524Y-4559D01*
X11573Y-4566D01*
X11623Y-4569D01*
X11677Y-4566D01*
X11728Y-4558D01*
X11775Y-4545D01*
X11818Y-4526D01*
X11857Y-4502D01*
X11892Y-4474D01*
X11921Y-4441D01*
X11945Y-4404D01*
X11964Y-4364D01*
X11977Y-4321D01*
X11985Y-4277D01*
X11988Y-4231D01*
X11985Y-4179D01*
X11974Y-4132D01*
X11957Y-4089D01*
X11933Y-4050D01*
X11903Y-4016D01*
X11868Y-3988D01*
X11826Y-3965D01*
X11780Y-3948D01*
X11758Y-4041D01*
X11794Y-4055D01*
X11825Y-4072D01*
X11851Y-4091D01*
X11871Y-4114D01*
X11887Y-4139D01*
X11898Y-4167D01*
X11905Y-4198D01*
X11907Y-4233D01*
X11905Y-4272D01*
X11897Y-4308D01*
X11885Y-4341D01*
X11867Y-4371D01*
X11846Y-4396D01*
X11821Y-4418D01*
X11793Y-4435D01*
X11761Y-4448D01*
X11728Y-4458D01*
X11694Y-4465D01*
X11659Y-4470D01*
X11624Y-4471D01*
X11580Y-4469D01*
X11538Y-4464D01*
X11500Y-4456D01*
X11464Y-4444D01*
X11432Y-4429D01*
X11405Y-4410D01*
X11382Y-4388D01*
X11363Y-4362D01*
X11348Y-4333D01*
X11337Y-4303D01*
X11331Y-4272D01*
X11329Y-4240D01*
X11332Y-4202D01*
X11340Y-4166D01*
X11355Y-4134D01*
X11375Y-4105D01*
X11400Y-4080D01*
X11432Y-4059D01*
X11469Y-4043D01*
X11511Y-4031D01*
X11511Y-4031D01*
X11609Y-3848D02*
X11693Y-3842D01*
X11768Y-3824D01*
X11832Y-3794D01*
X11888Y-3752D01*
X11932Y-3701D01*
X11963Y-3643D01*
X11982Y-3577D01*
X11989Y-3505D01*
X11986Y-3457D01*
X11977Y-3411D01*
X11962Y-3367D01*
X11941Y-3326D01*
X11915Y-3289D01*
X11884Y-3256D01*
X11849Y-3228D01*
X11809Y-3205D01*
X11765Y-3187D01*
X11719Y-3174D01*
X11669Y-3166D01*
X11617Y-3163D01*
X11564Y-3166D01*
X11514Y-3174D01*
X11467Y-3188D01*
X11422Y-3207D01*
X11382Y-3232D01*
X11347Y-3260D01*
X11317Y-3294D01*
X11292Y-3332D01*
X11273Y-3373D01*
X11259Y-3416D01*
X11254Y-3440D01*
X11334Y-3455D01*
X11348Y-3409D01*
X11371Y-3367D01*
X11404Y-3330D01*
X11446Y-3300D01*
X11495Y-3278D01*
X11552Y-3265D01*
X11617Y-3261D01*
X11660Y-3263D01*
X11699Y-3268D01*
X11736Y-3278D01*
X11770Y-3291D01*
X11801Y-3307D01*
X11828Y-3327D01*
X11851Y-3350D01*
X11871Y-3377D01*
X11887Y-3406D01*
X11898Y-3437D01*
X11905Y-3470D01*
X11907Y-3505D01*
X11903Y-3553D01*
X11890Y-3598D01*
X11868Y-3640D01*
X11838Y-3678D01*
X11798Y-3709D01*
X11746Y-3732D01*
X11682Y-3746D01*
X11607Y-3750D01*
X11607Y-3750D01*
X11546Y-3746D01*
X11492Y-3733D01*
X11444Y-3711D01*
X11403Y-3681D01*
X11371Y-3644D01*
X11347Y-3602D01*
X11334Y-3556D01*
X11329Y-3506D01*
X11334Y-3455D01*
X11254Y-3440D01*
X11251Y-3460D01*
X11248Y-3506D01*
X11251Y-3555D01*
X11260Y-3601D01*
X11275Y-3645D01*
X11297Y-3686D01*
X11323Y-3724D01*
X11354Y-3756D01*
X11390Y-3784D01*
X11430Y-3807D01*
X11473Y-3825D01*
X11517Y-3838D01*
X11562Y-3845D01*
X11609Y-3848D01*
X11609Y-3848D01*
X11260Y-3042D02*
X11976Y-3042D01*
X11976Y-2945D01*
X11414Y-2569D01*
X11976Y-2569D01*
X11976Y-2478D01*
X11260Y-2478D01*
X11260Y-2575D01*
X11822Y-2951D01*
X11260Y-2951D01*
X11260Y-3042D01*
X11260Y-3042D01*
X11260Y-2320D02*
X11976Y-2320D01*
X11976Y-2223D01*
X11414Y-1847D01*
X11976Y-1847D01*
X11976Y-1756D01*
X11260Y-1756D01*
X11260Y-1853D01*
X11822Y-2229D01*
X11260Y-2229D01*
X11260Y-2320D01*
X11260Y-2320D01*
X11447Y-1633D02*
X11455Y-1540D01*
X11424Y-1533D01*
X11396Y-1523D01*
X11373Y-1510D01*
X11354Y-1493D01*
X11339Y-1473D01*
X11329Y-1451D01*
X11322Y-1428D01*
X11320Y-1403D01*
X11323Y-1372D01*
X11332Y-1344D01*
X11347Y-1318D01*
X11368Y-1295D01*
X11394Y-1276D01*
X11424Y-1262D01*
X11457Y-1254D01*
X11495Y-1251D01*
X11530Y-1254D01*
X11562Y-1262D01*
X11590Y-1275D01*
X11614Y-1293D01*
X11633Y-1316D01*
X11646Y-1342D01*
X11654Y-1371D01*
X11657Y-1404D01*
X11656Y-1425D01*
X11652Y-1444D01*
X11646Y-1463D01*
X11638Y-1481D01*
X11627Y-1497D01*
X11616Y-1511D01*
X11602Y-1524D01*
X11588Y-1534D01*
X11598Y-1617D01*
X11966Y-1548D01*
X11966Y-1192D01*
X11882Y-1192D01*
X11882Y-1477D01*
X11690Y-1516D01*
X11709Y-1483D01*
X11723Y-1450D01*
X11732Y-1416D01*
X11735Y-1381D01*
X11731Y-1336D01*
X11718Y-1294D01*
X11698Y-1256D01*
X11670Y-1222D01*
X11635Y-1194D01*
X11595Y-1174D01*
X11551Y-1162D01*
X11503Y-1158D01*
X11456Y-1161D01*
X11412Y-1172D01*
X11372Y-1190D01*
X11335Y-1215D01*
X11297Y-1252D01*
X11270Y-1296D01*
X11253Y-1346D01*
X11248Y-1403D01*
X11251Y-1449D01*
X11261Y-1491D01*
X11279Y-1529D01*
X11302Y-1562D01*
X11332Y-1590D01*
X11366Y-1610D01*
X11405Y-1625D01*
X11447Y-1633D01*
X11447Y-1633D01*
G37*
%LNbottom silkscreen component 652db1df5cb2c357*%
D10*
X33060Y-30750D02*
X12740Y-30750D01*
X12740Y-33250*
X33060Y-33250*
X33060Y-30750*
D12*
X12610Y-30632D03*
G36*
X11539Y-30719D02*
X11563Y-30814D01*
X11618Y-30796D01*
X11666Y-30773D01*
X11707Y-30743D01*
X11741Y-30707D01*
X11768Y-30666D01*
X11787Y-30621D01*
X11798Y-30572D01*
X11802Y-30518D01*
X11799Y-30463D01*
X11790Y-30413D01*
X11776Y-30369D01*
X11755Y-30330D01*
X11729Y-30296D01*
X11697Y-30266D01*
X11661Y-30240D01*
X11619Y-30219D01*
X11573Y-30203D01*
X11526Y-30191D01*
X11477Y-30184D01*
X11427Y-30181D01*
X11373Y-30184D01*
X11322Y-30192D01*
X11275Y-30205D01*
X11232Y-30224D01*
X11193Y-30248D01*
X11158Y-30276D01*
X11129Y-30309D01*
X11105Y-30346D01*
X11086Y-30386D01*
X11073Y-30429D01*
X11065Y-30473D01*
X11062Y-30519D01*
X11065Y-30571D01*
X11076Y-30618D01*
X11093Y-30661D01*
X11117Y-30700D01*
X11147Y-30734D01*
X11182Y-30762D01*
X11224Y-30785D01*
X11270Y-30802D01*
X11292Y-30709D01*
X11256Y-30695D01*
X11225Y-30678D01*
X11199Y-30659D01*
X11179Y-30636D01*
X11163Y-30611D01*
X11152Y-30583D01*
X11145Y-30552D01*
X11143Y-30517D01*
X11145Y-30478D01*
X11153Y-30442D01*
X11165Y-30409D01*
X11183Y-30379D01*
X11204Y-30354D01*
X11229Y-30332D01*
X11257Y-30315D01*
X11289Y-30302D01*
X11322Y-30292D01*
X11356Y-30285D01*
X11391Y-30280D01*
X11426Y-30279D01*
X11470Y-30281D01*
X11512Y-30286D01*
X11550Y-30294D01*
X11586Y-30306D01*
X11618Y-30321D01*
X11645Y-30340D01*
X11668Y-30362D01*
X11687Y-30388D01*
X11702Y-30417D01*
X11713Y-30447D01*
X11719Y-30478D01*
X11721Y-30510D01*
X11718Y-30548D01*
X11710Y-30584D01*
X11695Y-30616D01*
X11675Y-30645D01*
X11650Y-30670D01*
X11618Y-30691D01*
X11581Y-30707D01*
X11539Y-30719D01*
X11539Y-30719D01*
X11441Y-30902D02*
X11357Y-30908D01*
X11282Y-30926D01*
X11218Y-30956D01*
X11162Y-30998D01*
X11118Y-31049D01*
X11087Y-31107D01*
X11068Y-31173D01*
X11061Y-31245D01*
X11064Y-31293D01*
X11073Y-31339D01*
X11088Y-31383D01*
X11109Y-31424D01*
X11135Y-31461D01*
X11166Y-31494D01*
X11201Y-31522D01*
X11241Y-31545D01*
X11285Y-31563D01*
X11331Y-31576D01*
X11381Y-31584D01*
X11433Y-31587D01*
X11486Y-31584D01*
X11536Y-31576D01*
X11583Y-31562D01*
X11628Y-31543D01*
X11668Y-31518D01*
X11703Y-31490D01*
X11733Y-31456D01*
X11758Y-31418D01*
X11777Y-31377D01*
X11791Y-31334D01*
X11796Y-31310D01*
X11716Y-31295D01*
X11702Y-31341D01*
X11679Y-31383D01*
X11646Y-31420D01*
X11604Y-31450D01*
X11555Y-31472D01*
X11498Y-31485D01*
X11433Y-31489D01*
X11390Y-31487D01*
X11351Y-31482D01*
X11314Y-31472D01*
X11280Y-31459D01*
X11249Y-31443D01*
X11222Y-31423D01*
X11199Y-31400D01*
X11179Y-31373D01*
X11163Y-31344D01*
X11152Y-31313D01*
X11145Y-31280D01*
X11143Y-31245D01*
X11147Y-31197D01*
X11160Y-31152D01*
X11182Y-31110D01*
X11212Y-31072D01*
X11252Y-31041D01*
X11304Y-31018D01*
X11368Y-31004D01*
X11443Y-31000D01*
X11443Y-31000D01*
X11504Y-31004D01*
X11558Y-31017D01*
X11606Y-31039D01*
X11647Y-31069D01*
X11679Y-31106D01*
X11703Y-31148D01*
X11716Y-31194D01*
X11721Y-31244D01*
X11716Y-31295D01*
X11796Y-31310D01*
X11799Y-31290D01*
X11802Y-31244D01*
X11799Y-31195D01*
X11790Y-31149D01*
X11775Y-31105D01*
X11753Y-31064D01*
X11727Y-31026D01*
X11696Y-30994D01*
X11660Y-30966D01*
X11620Y-30943D01*
X11577Y-30925D01*
X11533Y-30912D01*
X11488Y-30905D01*
X11441Y-30902D01*
X11441Y-30902D01*
X11790Y-31708D02*
X11074Y-31708D01*
X11074Y-31805D01*
X11636Y-32181D01*
X11074Y-32181D01*
X11074Y-32272D01*
X11790Y-32272D01*
X11790Y-32175D01*
X11227Y-31799D01*
X11790Y-31799D01*
X11790Y-31708D01*
X11790Y-31708D01*
X11790Y-32430D02*
X11074Y-32430D01*
X11074Y-32527D01*
X11636Y-32903D01*
X11074Y-32903D01*
X11074Y-32994D01*
X11790Y-32994D01*
X11790Y-32897D01*
X11227Y-32521D01*
X11790Y-32521D01*
X11790Y-32430D01*
X11790Y-32430D01*
X11706Y-33579D02*
X11790Y-33579D01*
X11790Y-33106D01*
X11774Y-33107D01*
X11759Y-33108D01*
X11744Y-33112D01*
X11729Y-33117D01*
X11705Y-33127D01*
X11681Y-33140D01*
X11657Y-33156D01*
X11634Y-33174D01*
X11609Y-33196D01*
X11583Y-33223D01*
X11555Y-33254D01*
X11525Y-33289D01*
X11480Y-33343D01*
X11440Y-33387D01*
X11404Y-33422D01*
X11374Y-33447D01*
X11346Y-33465D01*
X11319Y-33478D01*
X11293Y-33486D01*
X11268Y-33488D01*
X11243Y-33486D01*
X11220Y-33479D01*
X11199Y-33467D01*
X11180Y-33451D01*
X11164Y-33431D01*
X11153Y-33408D01*
X11146Y-33382D01*
X11144Y-33353D01*
X11146Y-33323D01*
X11154Y-33296D01*
X11165Y-33272D01*
X11182Y-33252D01*
X11203Y-33235D01*
X11228Y-33223D01*
X11256Y-33216D01*
X11288Y-33213D01*
X11278Y-33123D01*
X11231Y-33131D01*
X11189Y-33145D01*
X11154Y-33166D01*
X11124Y-33193D01*
X11101Y-33226D01*
X11084Y-33264D01*
X11075Y-33307D01*
X11071Y-33355D01*
X11075Y-33404D01*
X11086Y-33448D01*
X11103Y-33486D01*
X11128Y-33518D01*
X11159Y-33545D01*
X11192Y-33563D01*
X11229Y-33575D01*
X11270Y-33578D01*
X11291Y-33577D01*
X11313Y-33574D01*
X11334Y-33569D01*
X11354Y-33561D01*
X11375Y-33551D01*
X11397Y-33537D01*
X11419Y-33521D01*
X11442Y-33502D01*
X11467Y-33479D01*
X11496Y-33448D01*
X11530Y-33411D01*
X11568Y-33367D01*
X11598Y-33331D01*
X11624Y-33302D01*
X11643Y-33280D01*
X11658Y-33265D01*
X11670Y-33255D01*
X11682Y-33245D01*
X11694Y-33236D01*
X11706Y-33228D01*
X11706Y-33579D01*
X11706Y-33579D01*
G37*
%LNbottom silkscreen component c50b25ac4a41304b*%
D10*
X12740Y-4000D02*
X33060Y-4000D01*
X33060Y-1500*
X12740Y-1500*
X12740Y-4000*
D11*
X33190Y-4118D03*
G36*
X34261Y-4031D02*
X34237Y-3936D01*
X34182Y-3954D01*
X34134Y-3977D01*
X34093Y-4007D01*
X34059Y-4043D01*
X34032Y-4084D01*
X34013Y-4129D01*
X34002Y-4178D01*
X33998Y-4232D01*
X34001Y-4287D01*
X34010Y-4337D01*
X34024Y-4381D01*
X34045Y-4420D01*
X34071Y-4454D01*
X34103Y-4484D01*
X34139Y-4510D01*
X34181Y-4531D01*
X34227Y-4547D01*
X34274Y-4559D01*
X34323Y-4566D01*
X34373Y-4569D01*
X34427Y-4566D01*
X34478Y-4558D01*
X34525Y-4545D01*
X34568Y-4526D01*
X34607Y-4502D01*
X34642Y-4474D01*
X34671Y-4441D01*
X34695Y-4404D01*
X34714Y-4364D01*
X34727Y-4321D01*
X34735Y-4277D01*
X34738Y-4231D01*
X34735Y-4179D01*
X34724Y-4132D01*
X34707Y-4089D01*
X34683Y-4050D01*
X34653Y-4016D01*
X34618Y-3988D01*
X34576Y-3965D01*
X34530Y-3948D01*
X34508Y-4041D01*
X34544Y-4055D01*
X34575Y-4072D01*
X34601Y-4091D01*
X34621Y-4114D01*
X34637Y-4139D01*
X34648Y-4167D01*
X34655Y-4198D01*
X34657Y-4233D01*
X34655Y-4272D01*
X34647Y-4308D01*
X34635Y-4341D01*
X34617Y-4371D01*
X34596Y-4396D01*
X34571Y-4418D01*
X34543Y-4435D01*
X34511Y-4448D01*
X34478Y-4458D01*
X34444Y-4465D01*
X34409Y-4470D01*
X34374Y-4471D01*
X34330Y-4469D01*
X34288Y-4464D01*
X34250Y-4456D01*
X34214Y-4444D01*
X34182Y-4429D01*
X34155Y-4410D01*
X34132Y-4388D01*
X34113Y-4362D01*
X34098Y-4333D01*
X34087Y-4303D01*
X34081Y-4272D01*
X34079Y-4240D01*
X34082Y-4202D01*
X34090Y-4166D01*
X34105Y-4134D01*
X34125Y-4105D01*
X34150Y-4080D01*
X34182Y-4059D01*
X34219Y-4043D01*
X34261Y-4031D01*
X34261Y-4031D01*
X34359Y-3848D02*
X34443Y-3842D01*
X34518Y-3824D01*
X34582Y-3794D01*
X34638Y-3752D01*
X34682Y-3701D01*
X34713Y-3643D01*
X34732Y-3577D01*
X34739Y-3505D01*
X34736Y-3457D01*
X34727Y-3411D01*
X34712Y-3367D01*
X34691Y-3326D01*
X34665Y-3289D01*
X34634Y-3256D01*
X34599Y-3228D01*
X34559Y-3205D01*
X34515Y-3187D01*
X34469Y-3174D01*
X34419Y-3166D01*
X34367Y-3163D01*
X34314Y-3166D01*
X34264Y-3174D01*
X34217Y-3188D01*
X34172Y-3207D01*
X34132Y-3232D01*
X34097Y-3260D01*
X34067Y-3294D01*
X34042Y-3332D01*
X34023Y-3373D01*
X34009Y-3416D01*
X34004Y-3440D01*
X34084Y-3455D01*
X34098Y-3409D01*
X34121Y-3367D01*
X34154Y-3330D01*
X34196Y-3300D01*
X34245Y-3278D01*
X34302Y-3265D01*
X34367Y-3261D01*
X34410Y-3263D01*
X34449Y-3268D01*
X34486Y-3278D01*
X34520Y-3291D01*
X34551Y-3307D01*
X34578Y-3327D01*
X34601Y-3350D01*
X34621Y-3377D01*
X34637Y-3406D01*
X34648Y-3437D01*
X34655Y-3470D01*
X34657Y-3505D01*
X34653Y-3553D01*
X34640Y-3598D01*
X34618Y-3640D01*
X34588Y-3678D01*
X34548Y-3709D01*
X34496Y-3732D01*
X34432Y-3746D01*
X34357Y-3750D01*
X34357Y-3750D01*
X34296Y-3746D01*
X34242Y-3733D01*
X34194Y-3711D01*
X34153Y-3681D01*
X34121Y-3644D01*
X34097Y-3602D01*
X34084Y-3556D01*
X34079Y-3506D01*
X34084Y-3455D01*
X34004Y-3440D01*
X34001Y-3460D01*
X33998Y-3506D01*
X34001Y-3555D01*
X34010Y-3601D01*
X34025Y-3645D01*
X34047Y-3686D01*
X34073Y-3724D01*
X34104Y-3756D01*
X34140Y-3784D01*
X34180Y-3807D01*
X34223Y-3825D01*
X34267Y-3838D01*
X34312Y-3845D01*
X34359Y-3848D01*
X34359Y-3848D01*
X34010Y-3042D02*
X34726Y-3042D01*
X34726Y-2945D01*
X34164Y-2569D01*
X34726Y-2569D01*
X34726Y-2478D01*
X34010Y-2478D01*
X34010Y-2575D01*
X34572Y-2951D01*
X34010Y-2951D01*
X34010Y-3042D01*
X34010Y-3042D01*
X34010Y-2320D02*
X34726Y-2320D01*
X34726Y-2223D01*
X34164Y-1847D01*
X34726Y-1847D01*
X34726Y-1756D01*
X34010Y-1756D01*
X34010Y-1853D01*
X34572Y-2229D01*
X34010Y-2229D01*
X34010Y-2320D01*
X34010Y-2320D01*
X34632Y-1627D02*
X34717Y-1627D01*
X34717Y-1163D01*
X34648Y-1163D01*
X34609Y-1197D01*
X34563Y-1231D01*
X34512Y-1265D01*
X34455Y-1299D01*
X34394Y-1330D01*
X34333Y-1358D01*
X34270Y-1382D01*
X34207Y-1403D01*
X34161Y-1415D01*
X34113Y-1424D01*
X34062Y-1431D01*
X34010Y-1436D01*
X34010Y-1527D01*
X34054Y-1524D01*
X34103Y-1518D01*
X34156Y-1507D01*
X34214Y-1493D01*
X34273Y-1476D01*
X34332Y-1455D01*
X34389Y-1430D01*
X34445Y-1402D01*
X34498Y-1372D01*
X34547Y-1341D01*
X34592Y-1309D01*
X34632Y-1276D01*
X34632Y-1627D01*
X34632Y-1627D01*
G37*
%LNbottom silkscreen component f983df3605afa4ed*%
D10*
X10310Y-30750D02*
X-10010Y-30750D01*
X-10010Y-33250*
X10310Y-33250*
X10310Y-30750*
D12*
X-10140Y-30632D03*
G36*
X-11211Y-30719D02*
X-11187Y-30814D01*
X-11132Y-30796D01*
X-11084Y-30773D01*
X-11043Y-30743D01*
X-11009Y-30707D01*
X-10982Y-30666D01*
X-10963Y-30621D01*
X-10952Y-30572D01*
X-10948Y-30518D01*
X-10951Y-30463D01*
X-10960Y-30413D01*
X-10974Y-30369D01*
X-10995Y-30330D01*
X-11021Y-30296D01*
X-11053Y-30266D01*
X-11089Y-30240D01*
X-11131Y-30219D01*
X-11177Y-30203D01*
X-11224Y-30191D01*
X-11273Y-30184D01*
X-11323Y-30181D01*
X-11377Y-30184D01*
X-11428Y-30192D01*
X-11475Y-30205D01*
X-11518Y-30224D01*
X-11557Y-30248D01*
X-11592Y-30276D01*
X-11621Y-30309D01*
X-11645Y-30346D01*
X-11664Y-30386D01*
X-11677Y-30429D01*
X-11685Y-30473D01*
X-11688Y-30519D01*
X-11685Y-30571D01*
X-11674Y-30618D01*
X-11657Y-30661D01*
X-11633Y-30700D01*
X-11603Y-30734D01*
X-11568Y-30762D01*
X-11526Y-30785D01*
X-11480Y-30802D01*
X-11458Y-30709D01*
X-11494Y-30695D01*
X-11525Y-30678D01*
X-11551Y-30659D01*
X-11571Y-30636D01*
X-11587Y-30611D01*
X-11598Y-30583D01*
X-11605Y-30552D01*
X-11607Y-30517D01*
X-11605Y-30478D01*
X-11597Y-30442D01*
X-11585Y-30409D01*
X-11567Y-30379D01*
X-11546Y-30354D01*
X-11521Y-30332D01*
X-11493Y-30315D01*
X-11461Y-30302D01*
X-11428Y-30292D01*
X-11394Y-30285D01*
X-11359Y-30280D01*
X-11324Y-30279D01*
X-11280Y-30281D01*
X-11238Y-30286D01*
X-11200Y-30294D01*
X-11164Y-30306D01*
X-11132Y-30321D01*
X-11105Y-30340D01*
X-11082Y-30362D01*
X-11063Y-30388D01*
X-11048Y-30417D01*
X-11037Y-30447D01*
X-11031Y-30478D01*
X-11029Y-30510D01*
X-11032Y-30548D01*
X-11040Y-30584D01*
X-11055Y-30616D01*
X-11075Y-30645D01*
X-11100Y-30670D01*
X-11132Y-30691D01*
X-11169Y-30707D01*
X-11211Y-30719D01*
X-11211Y-30719D01*
X-11309Y-30902D02*
X-11393Y-30908D01*
X-11468Y-30926D01*
X-11532Y-30956D01*
X-11588Y-30998D01*
X-11632Y-31049D01*
X-11663Y-31107D01*
X-11682Y-31173D01*
X-11689Y-31245D01*
X-11686Y-31293D01*
X-11677Y-31339D01*
X-11662Y-31383D01*
X-11641Y-31424D01*
X-11615Y-31461D01*
X-11584Y-31494D01*
X-11549Y-31522D01*
X-11509Y-31545D01*
X-11465Y-31563D01*
X-11419Y-31576D01*
X-11369Y-31584D01*
X-11317Y-31587D01*
X-11264Y-31584D01*
X-11214Y-31576D01*
X-11167Y-31562D01*
X-11122Y-31543D01*
X-11082Y-31518D01*
X-11047Y-31490D01*
X-11017Y-31456D01*
X-10992Y-31418D01*
X-10973Y-31377D01*
X-10959Y-31334D01*
X-10954Y-31310D01*
X-11034Y-31295D01*
X-11048Y-31341D01*
X-11071Y-31383D01*
X-11104Y-31420D01*
X-11146Y-31450D01*
X-11195Y-31472D01*
X-11252Y-31485D01*
X-11317Y-31489D01*
X-11360Y-31487D01*
X-11399Y-31482D01*
X-11436Y-31472D01*
X-11470Y-31459D01*
X-11501Y-31443D01*
X-11528Y-31423D01*
X-11551Y-31400D01*
X-11571Y-31373D01*
X-11587Y-31344D01*
X-11598Y-31313D01*
X-11605Y-31280D01*
X-11607Y-31245D01*
X-11603Y-31197D01*
X-11590Y-31152D01*
X-11568Y-31110D01*
X-11538Y-31072D01*
X-11498Y-31041D01*
X-11446Y-31018D01*
X-11382Y-31004D01*
X-11307Y-31000D01*
X-11307Y-31000D01*
X-11246Y-31004D01*
X-11192Y-31017D01*
X-11144Y-31039D01*
X-11103Y-31069D01*
X-11071Y-31106D01*
X-11047Y-31148D01*
X-11034Y-31194D01*
X-11029Y-31244D01*
X-11034Y-31295D01*
X-10954Y-31310D01*
X-10951Y-31290D01*
X-10948Y-31244D01*
X-10951Y-31195D01*
X-10960Y-31149D01*
X-10975Y-31105D01*
X-10997Y-31064D01*
X-11023Y-31026D01*
X-11054Y-30994D01*
X-11090Y-30966D01*
X-11130Y-30943D01*
X-11173Y-30925D01*
X-11217Y-30912D01*
X-11262Y-30905D01*
X-11309Y-30902D01*
X-11309Y-30902D01*
X-10960Y-31708D02*
X-11676Y-31708D01*
X-11676Y-31805D01*
X-11114Y-32181D01*
X-11676Y-32181D01*
X-11676Y-32272D01*
X-10960Y-32272D01*
X-10960Y-32175D01*
X-11523Y-31799D01*
X-10960Y-31799D01*
X-10960Y-31708D01*
X-10960Y-31708D01*
X-10960Y-32430D02*
X-11676Y-32430D01*
X-11676Y-32527D01*
X-11114Y-32903D01*
X-11676Y-32903D01*
X-11676Y-32994D01*
X-10960Y-32994D01*
X-10960Y-32897D01*
X-11523Y-32521D01*
X-10960Y-32521D01*
X-10960Y-32430D01*
X-10960Y-32430D01*
X-10960Y-33399D02*
X-11131Y-33399D01*
X-11131Y-33089D01*
X-11212Y-33089D01*
X-11574Y-33344D01*
X-11535Y-33399D01*
X-11212Y-33175D01*
X-11212Y-33399D01*
X-11212Y-33399D01*
X-11535Y-33399D01*
X-11574Y-33344D01*
X-11676Y-33415D01*
X-11676Y-33487D01*
X-11212Y-33487D01*
X-11212Y-33584D01*
X-11131Y-33584D01*
X-11131Y-33487D01*
X-10960Y-33487D01*
X-10960Y-33399D01*
X-10960Y-33399D01*
G37*
%LNtext*%
G36*
X27095Y-30133D02*
X26770Y-29287D01*
X26684Y-29320D01*
X26694Y-29363D01*
X26705Y-29407D01*
X26718Y-29450D01*
X26733Y-29493D01*
X26833Y-29760D01*
X26833Y-29760D01*
X26525Y-29760D01*
X26620Y-29508D01*
X26640Y-29453D01*
X26657Y-29404D01*
X26672Y-29359D01*
X26684Y-29320D01*
X26770Y-29287D01*
X26746Y-29224D01*
X26616Y-29224D01*
X26244Y-30133D01*
X26381Y-30133D01*
X26487Y-29858D01*
X26868Y-29858D01*
X26967Y-30133D01*
X27095Y-30133D01*
X27095Y-30133D01*
X25607Y-30026D02*
X25607Y-30133D01*
X26208Y-30133D01*
X26207Y-30113D01*
X26205Y-30094D01*
X26201Y-30075D01*
X26195Y-30056D01*
X26182Y-30025D01*
X26165Y-29995D01*
X26145Y-29965D01*
X26121Y-29935D01*
X26093Y-29904D01*
X26059Y-29871D01*
X26020Y-29835D01*
X25975Y-29797D01*
X25907Y-29740D01*
X25851Y-29688D01*
X25807Y-29643D01*
X25775Y-29605D01*
X25752Y-29570D01*
X25736Y-29536D01*
X25726Y-29503D01*
X25723Y-29470D01*
X25726Y-29439D01*
X25735Y-29409D01*
X25750Y-29383D01*
X25770Y-29358D01*
X25796Y-29339D01*
X25825Y-29324D01*
X25858Y-29316D01*
X25894Y-29313D01*
X25932Y-29316D01*
X25967Y-29325D01*
X25997Y-29340D01*
X26023Y-29361D01*
X26044Y-29388D01*
X26059Y-29419D01*
X26069Y-29455D01*
X26072Y-29495D01*
X26187Y-29483D01*
X26177Y-29423D01*
X26159Y-29370D01*
X26132Y-29325D01*
X26098Y-29288D01*
X26056Y-29258D01*
X26008Y-29237D01*
X25953Y-29225D01*
X25892Y-29221D01*
X25830Y-29225D01*
X25774Y-29239D01*
X25726Y-29261D01*
X25684Y-29293D01*
X25651Y-29332D01*
X25627Y-29374D01*
X25613Y-29421D01*
X25608Y-29473D01*
X25610Y-29500D01*
X25614Y-29527D01*
X25621Y-29554D01*
X25630Y-29580D01*
X25643Y-29607D01*
X25660Y-29634D01*
X25681Y-29662D01*
X25705Y-29691D01*
X25735Y-29723D01*
X25773Y-29760D01*
X25821Y-29803D01*
X25877Y-29851D01*
X25922Y-29890D01*
X25959Y-29922D01*
X25987Y-29947D01*
X26006Y-29966D01*
X26019Y-29981D01*
X26032Y-29996D01*
X26043Y-30011D01*
X26053Y-30026D01*
X25607Y-30026D01*
X25607Y-30026D01*
X4695Y-29920D02*
X4370Y-29073D01*
X4284Y-29106D01*
X4294Y-29150D01*
X4305Y-29194D01*
X4318Y-29237D01*
X4333Y-29280D01*
X4433Y-29547D01*
X4433Y-29547D01*
X4125Y-29547D01*
X4220Y-29295D01*
X4240Y-29240D01*
X4257Y-29190D01*
X4272Y-29146D01*
X4284Y-29106D01*
X4370Y-29073D01*
X4346Y-29011D01*
X4216Y-29011D01*
X3844Y-29920D01*
X3981Y-29920D01*
X4087Y-29645D01*
X4468Y-29645D01*
X4567Y-29920D01*
X4695Y-29920D01*
X4695Y-29920D01*
X3436Y-29920D02*
X3436Y-29702D01*
X3830Y-29702D01*
X3830Y-29600D01*
X3506Y-29140D01*
X3436Y-29190D01*
X3720Y-29600D01*
X3436Y-29600D01*
X3436Y-29600D01*
X3436Y-29190D01*
X3506Y-29140D01*
X3415Y-29011D01*
X3324Y-29011D01*
X3324Y-29600D01*
X3201Y-29600D01*
X3201Y-29702D01*
X3324Y-29702D01*
X3324Y-29920D01*
X3436Y-29920D01*
X3436Y-29920D01*
X19361Y-5362D02*
X19243Y-5352D01*
X19235Y-5392D01*
X19222Y-5427D01*
X19205Y-5456D01*
X19183Y-5481D01*
X19158Y-5499D01*
X19131Y-5513D01*
X19101Y-5521D01*
X19069Y-5524D01*
X19030Y-5520D01*
X18994Y-5509D01*
X18962Y-5490D01*
X18932Y-5463D01*
X18908Y-5430D01*
X18890Y-5392D01*
X18880Y-5349D01*
X18876Y-5302D01*
X18880Y-5256D01*
X18890Y-5216D01*
X18906Y-5181D01*
X18930Y-5151D01*
X18959Y-5127D01*
X18992Y-5110D01*
X19029Y-5099D01*
X19070Y-5096D01*
X19097Y-5097D01*
X19122Y-5102D01*
X19145Y-5110D01*
X19168Y-5120D01*
X19188Y-5133D01*
X19207Y-5148D01*
X19222Y-5165D01*
X19236Y-5184D01*
X19341Y-5170D01*
X19253Y-4703D01*
X18801Y-4703D01*
X18801Y-4810D01*
X19163Y-4810D01*
X19212Y-5054D01*
X19171Y-5029D01*
X19129Y-5012D01*
X19085Y-5001D01*
X19041Y-4997D01*
X18983Y-5002D01*
X18931Y-5018D01*
X18883Y-5044D01*
X18840Y-5080D01*
X18804Y-5124D01*
X18778Y-5174D01*
X18763Y-5230D01*
X18758Y-5292D01*
X18762Y-5351D01*
X18776Y-5407D01*
X18798Y-5458D01*
X18830Y-5505D01*
X18878Y-5553D01*
X18933Y-5588D01*
X18997Y-5609D01*
X19069Y-5616D01*
X19128Y-5611D01*
X19181Y-5598D01*
X19229Y-5576D01*
X19271Y-5546D01*
X19306Y-5508D01*
X19333Y-5465D01*
X19351Y-5416D01*
X19361Y-5362D01*
X19361Y-5362D01*
X-2985Y-5120D02*
X-3310Y-4273D01*
X-3396Y-4306D01*
X-3386Y-4350D01*
X-3375Y-4394D01*
X-3362Y-4437D01*
X-3347Y-4480D01*
X-3247Y-4747D01*
X-3247Y-4747D01*
X-3555Y-4747D01*
X-3460Y-4495D01*
X-3440Y-4440D01*
X-3423Y-4390D01*
X-3408Y-4346D01*
X-3396Y-4306D01*
X-3310Y-4273D01*
X-3334Y-4211D01*
X-3464Y-4211D01*
X-3836Y-5120D01*
X-3699Y-5120D01*
X-3593Y-4845D01*
X-3212Y-4845D01*
X-3113Y-5120D01*
X-2985Y-5120D01*
X-2985Y-5120D01*
X-3886Y-4882D02*
X-4004Y-4872D01*
X-4012Y-4912D01*
X-4025Y-4947D01*
X-4043Y-4976D01*
X-4064Y-5001D01*
X-4089Y-5019D01*
X-4116Y-5033D01*
X-4146Y-5041D01*
X-4179Y-5044D01*
X-4217Y-5040D01*
X-4253Y-5029D01*
X-4286Y-5010D01*
X-4315Y-4983D01*
X-4339Y-4950D01*
X-4357Y-4912D01*
X-4367Y-4869D01*
X-4371Y-4822D01*
X-4367Y-4776D01*
X-4357Y-4736D01*
X-4341Y-4701D01*
X-4317Y-4671D01*
X-4288Y-4647D01*
X-4255Y-4630D01*
X-4218Y-4619D01*
X-4177Y-4616D01*
X-4150Y-4617D01*
X-4125Y-4622D01*
X-4102Y-4630D01*
X-4079Y-4640D01*
X-4059Y-4653D01*
X-4041Y-4668D01*
X-4025Y-4685D01*
X-4011Y-4704D01*
X-3906Y-4690D01*
X-3994Y-4223D01*
X-4446Y-4223D01*
X-4446Y-4330D01*
X-4084Y-4330D01*
X-4035Y-4574D01*
X-4076Y-4549D01*
X-4119Y-4532D01*
X-4162Y-4521D01*
X-4206Y-4517D01*
X-4264Y-4522D01*
X-4316Y-4538D01*
X-4364Y-4564D01*
X-4407Y-4600D01*
X-4443Y-4644D01*
X-4469Y-4694D01*
X-4484Y-4750D01*
X-4489Y-4812D01*
X-4485Y-4871D01*
X-4471Y-4927D01*
X-4449Y-4978D01*
X-4417Y-5025D01*
X-4370Y-5073D01*
X-4314Y-5108D01*
X-4250Y-5129D01*
X-4179Y-5136D01*
X-4119Y-5131D01*
X-4066Y-5118D01*
X-4018Y-5096D01*
X-3976Y-5066D01*
X-3941Y-5028D01*
X-3914Y-4985D01*
X-3896Y-4936D01*
X-3886Y-4882D01*
X-3886Y-4882D01*
G37*
M02*